<svg width="27" height="42" viewBox="0 0 27 42" fill="none" xmlns="http://www.w3.org/2000/svg">
<circle cx="13.0998" cy="26.6037" r="13.0998" fill="#AB6700"/>
<path d="M12.725 34.0975C11.7987 34.0975 10.9738 33.9383 10.2501 33.6199C9.53065 33.2974 8.96208 32.8549 8.54444 32.2926C8.13094 31.7261 7.91798 31.0727 7.90558 30.3325H10.6099C10.6264 30.6427 10.7277 30.9156 10.9138 31.1513C11.104 31.3828 11.3563 31.5627 11.6705 31.6909C11.9848 31.8191 12.3383 31.8832 12.7312 31.8832C13.1405 31.8832 13.5024 31.8108 13.8166 31.6661C14.1309 31.5214 14.3769 31.3208 14.5547 31.0644C14.7325 30.8081 14.8214 30.5124 14.8214 30.1775C14.8214 29.8384 14.7263 29.5386 14.5361 29.2781C14.35 29.0135 14.0813 28.8067 13.7298 28.6578C13.3824 28.509 12.9689 28.4346 12.4893 28.4346H11.3046V26.4621H12.4893C12.8945 26.4621 13.2522 26.3918 13.5623 26.2512C13.8766 26.1107 14.1206 25.9163 14.2942 25.6682C14.4679 25.416 14.5547 25.1224 14.5547 24.7874C14.5547 24.469 14.4782 24.1899 14.3252 23.9501C14.1764 23.7061 13.9655 23.5159 13.6926 23.3795C13.4238 23.243 13.1095 23.1748 12.7498 23.1748C12.3859 23.1748 12.053 23.2409 11.7512 23.3733C11.4493 23.5014 11.2074 23.6855 11.0255 23.9253C10.8435 24.1651 10.7464 24.4463 10.7339 24.7688H8.15988C8.17229 24.0369 8.38111 23.3919 8.78634 22.8336C9.19158 22.2754 9.7374 21.8392 10.4238 21.5249C11.1144 21.2065 11.8938 21.0473 12.7622 21.0473C13.6388 21.0473 14.4059 21.2065 15.0633 21.5249C15.7208 21.8433 16.2315 22.2733 16.5954 22.815C16.9634 23.3526 17.1453 23.9563 17.1412 24.6262C17.1453 25.3374 16.9241 25.9308 16.4775 26.4063C16.0351 26.8818 15.4582 27.1837 14.747 27.3119V27.4111C15.6815 27.531 16.3928 27.8556 16.8807 28.3849C17.3728 28.9101 17.6167 29.5676 17.6126 30.3573C17.6167 31.081 17.4079 31.724 16.9861 32.2863C16.5685 32.8487 15.9917 33.2912 15.2556 33.6137C14.5196 33.9362 13.676 34.0975 12.725 34.0975Z" fill="white"/>
<path d="M17.0656 8.63086L19.2701 15.8799L13.6843 15.1202L17.0656 8.63086Z" fill="#F79329"/>
<path d="M19.2701 16.0694C19.2624 16.0694 19.2547 16.0694 19.247 16.0678L13.6597 15.3081C13.5998 15.3 13.5491 15.2613 13.5215 15.2048C13.4938 15.1484 13.4954 15.0822 13.523 15.0274L16.9058 8.53808C16.9411 8.47194 17.0118 8.43323 17.0825 8.43968C17.1547 8.44614 17.2161 8.49775 17.2376 8.57034L19.4252 15.7678C19.4467 15.7984 19.459 15.8371 19.459 15.8775C19.459 15.9823 19.3776 16.0678 19.2778 16.0678C19.2778 16.0694 19.2731 16.0694 19.2701 16.0694ZM13.9685 14.9661L19.0105 15.6516L17.0226 9.11071L13.9685 14.9661ZM9.17391 6.13463C9.17391 6.36822 9.08554 6.59223 8.92824 6.7574C8.77093 6.92257 8.55758 7.01536 8.33512 7.01536C7.87272 7.01536 7.49634 6.62016 7.49634 6.13463C7.49634 5.64749 7.87118 5.25391 8.33512 5.25391C8.79907 5.25391 9.17391 5.64749 9.17391 6.13463Z" fill="#F79329"/>
<path d="M8.33525 7.20463C8.06484 7.20421 7.80561 7.09122 7.6144 6.89045C7.42319 6.68968 7.31559 6.4175 7.31519 6.13357C7.31559 5.84963 7.42319 5.57745 7.6144 5.37668C7.80561 5.17591 8.06484 5.06293 8.33525 5.0625C8.60566 5.06293 8.86488 5.17591 9.05609 5.37668C9.2473 5.57745 9.35491 5.84963 9.35531 6.13357C9.35491 6.4175 9.2473 6.68968 9.05609 6.89045C8.86488 7.09122 8.60566 7.20421 8.33525 7.20463ZM8.33525 5.44479C7.9727 5.44479 7.67774 5.7545 7.67774 6.13518C7.67774 6.51586 7.9727 6.82557 8.33525 6.82557C8.6978 6.82557 8.9943 6.51586 8.9943 6.13518C8.9943 5.7545 8.6978 5.44479 8.33525 5.44479ZM17.376 5.25445C17.8384 5.28349 18.1918 5.70127 18.1641 6.1868C18.138 6.67233 17.7386 7.04171 17.2777 7.01429C17.1677 7.00767 17.06 6.97832 16.9608 6.92793C16.8617 6.87754 16.7729 6.80709 16.6997 6.72064C16.6265 6.63418 16.5703 6.5334 16.5342 6.42408C16.4982 6.31476 16.483 6.19904 16.4896 6.08356C16.5173 5.59642 16.9136 5.22542 17.376 5.25445Z" fill="#F79329"/>
<path d="M17.3267 7.20497L17.2668 7.20336C16.9949 7.18723 16.7445 7.0598 16.5648 6.84688C16.4755 6.74195 16.4069 6.61952 16.3628 6.48664C16.3188 6.35376 16.3002 6.21305 16.3082 6.07261C16.3237 5.79996 16.4378 5.54382 16.6271 5.35646C16.8164 5.16911 17.0666 5.06466 17.3267 5.06445L17.3866 5.06607C17.9489 5.10155 18.3791 5.61128 18.3453 6.20004C18.3293 6.47224 18.215 6.72778 18.0257 6.91453C17.8365 7.10128 17.5865 7.20516 17.3267 7.20497ZM17.3621 5.44352C16.978 5.44352 16.6907 5.72903 16.6708 6.09358C16.66 6.27747 16.7184 6.4549 16.8351 6.59363C16.9519 6.73235 17.1117 6.813 17.2883 6.82429L17.3267 6.82591C17.6739 6.82591 17.9627 6.5404 17.9827 6.17585C18.0042 5.79517 17.7262 5.46772 17.3636 5.44352H17.3621ZM8.59628 8.63091L6.39331 15.88L11.9791 15.1202L8.59628 8.63091Z" fill="#F79329"/>
<path d="M6.3934 16.069C6.34117 16.069 6.28894 16.0448 6.2536 16.0012C6.21366 15.9512 6.20137 15.8835 6.21981 15.8222L8.42277 8.57312C8.44428 8.50053 8.50573 8.44891 8.57793 8.44246C8.65628 8.4344 8.71927 8.47311 8.7546 8.54086L12.1374 15.0302C12.1651 15.085 12.1666 15.1511 12.1389 15.2076C12.1128 15.2641 12.0606 15.3012 12.0007 15.3108L6.41491 16.0706C6.40876 16.069 6.40108 16.069 6.3934 16.069ZM8.64092 9.11026L6.65149 15.6528L11.6934 14.9673L8.64092 9.11026Z" fill="#F79329"/>
<path d="M14.087 5.14403C14.087 5.87152 13.5248 6.4619 12.8319 6.4619C12.1391 6.4619 11.5753 5.87152 11.5753 5.14403C11.5753 4.41494 12.1375 3.82617 12.8319 3.82617C13.5263 3.82617 14.087 4.41494 14.087 5.14403ZM5.06623 6.13606C5.06623 6.71353 4.62072 7.18132 4.06921 7.18132C3.51924 7.18132 3.07373 6.71353 3.07373 6.13606C3.07373 5.55698 3.51924 5.08919 4.06921 5.08919C4.62072 5.08919 5.06623 5.55698 5.06623 6.13606ZM20.5961 6.13606C20.5961 6.71353 21.0416 7.18132 21.5931 7.18132C22.1431 7.18132 22.5901 6.71353 22.5901 6.13606C22.5901 5.85841 22.4851 5.59214 22.2981 5.39581C22.1111 5.19949 21.8575 5.08919 21.5931 5.08919C21.3287 5.08919 21.0751 5.19949 20.8881 5.39581C20.7011 5.59214 20.5961 5.85841 20.5961 6.13606Z" fill="#DD8500"/>
<path d="M14.087 5.14403C14.087 5.87152 13.5248 6.4619 12.8319 6.4619C12.1391 6.4619 11.5753 5.87152 11.5753 5.14403C11.5753 4.41494 12.1375 3.82617 12.8319 3.82617C13.5263 3.82617 14.087 4.41494 14.087 5.14403ZM5.06623 6.13606C5.06623 6.71353 4.62072 7.18132 4.06921 7.18132C3.51924 7.18132 3.07373 6.71353 3.07373 6.13606C3.07373 5.55698 3.51924 5.08919 4.06921 5.08919C4.62072 5.08919 5.06623 5.55698 5.06623 6.13606ZM20.5961 6.13606C20.5961 6.71353 21.0416 7.18132 21.5931 7.18132C22.1431 7.18132 22.5901 6.71353 22.5901 6.13606C22.5901 5.85841 22.4851 5.59214 22.2981 5.39581C22.1111 5.19949 21.8575 5.08919 21.5931 5.08919C21.3287 5.08919 21.0751 5.19949 20.8881 5.39581C20.7011 5.59214 20.5961 5.85841 20.5961 6.13606Z" fill="#DD8500"/>
<path d="M21.3581 9.12373C21.3255 9.10845 21.2892 9.10367 21.2539 9.10998C21.2187 9.1163 21.186 9.13343 21.16 9.15921L16.4038 13.8467L13.0102 8.52529C12.9764 8.47205 12.9211 8.44141 12.8597 8.44141C12.7998 8.44141 12.7429 8.47205 12.7091 8.52367L9.3002 13.8467L4.54554 9.1576C4.51953 9.13181 4.48683 9.11468 4.45157 9.10837C4.4163 9.10205 4.38005 9.10684 4.34737 9.12211C4.28131 9.15276 4.23829 9.22374 4.24137 9.29955L4.43647 16.9648C4.43647 18.6311 8.13266 19.9376 12.852 19.9376C17.5713 19.9376 21.2675 18.6311 21.2675 16.9696L21.4626 9.29955C21.4657 9.22535 21.4242 9.15438 21.3581 9.12373Z" fill="#DD8500"/>
<mask id="mask0_6250_52697" style="mask-type:luminance" maskUnits="userSpaceOnUse" x="4" y="8" width="18" height="12">
<path d="M21.3581 9.12373C21.3255 9.10845 21.2892 9.10367 21.2539 9.10998C21.2187 9.1163 21.186 9.13343 21.16 9.15921L16.4038 13.8467L13.0102 8.52529C12.9764 8.47205 12.9211 8.44141 12.8597 8.44141C12.7998 8.44141 12.7429 8.47205 12.7091 8.52367L9.3002 13.8467L4.54554 9.1576C4.51953 9.13181 4.48683 9.11468 4.45157 9.10837C4.4163 9.10205 4.38005 9.10684 4.34737 9.12211C4.28131 9.15276 4.23829 9.22374 4.24137 9.29955L4.43647 16.9648C4.43647 18.6311 8.13266 19.9376 12.852 19.9376C17.5713 19.9376 21.2675 18.6311 21.2675 16.9696L21.4626 9.29955C21.4657 9.22535 21.4242 9.15438 21.3581 9.12373Z" fill="white"/>
</mask>
<g mask="url(#mask0_6250_52697)">
<path d="M21.4209 13.0962L21.4225 13.0978L21.3318 16.1384H21.3303C20.6851 16.1174 20.1843 15.4206 20.2088 14.5802C20.2334 13.7382 20.7757 13.0752 21.4209 13.0962ZM4.28572 13.0962L4.28418 13.0978L4.37328 16.1384H4.37635C5.02004 16.1174 5.52239 15.4206 5.49627 14.5802C5.47169 13.7382 4.9294 13.0752 4.28572 13.0962Z" fill="#D7598B"/>
</g>
<path d="M14.1838 16.0781C14.1838 16.9781 13.5877 17.7089 12.8519 17.7089C12.1175 17.7089 11.5215 16.9781 11.5215 16.0781C11.5215 15.1764 12.1175 14.4473 12.8519 14.4473C13.5877 14.4457 14.1838 15.1764 14.1838 16.0781Z" fill="#D7598B"/>
<path d="M16.811 16.9781C16.7911 17.4136 16.4853 17.7507 16.1289 17.733C15.7741 17.7153 15.5021 17.3459 15.5237 16.912C15.5452 16.4748 15.8509 16.1377 16.2057 16.157C16.5606 16.1732 16.831 16.5426 16.811 16.9781Z" fill="#ED6C30"/>
<path d="M19.4733 16.4997C19.495 16.0647 19.224 15.6962 18.8681 15.6767C18.5123 15.6572 18.2063 15.994 18.1847 16.4291C18.163 16.8641 18.434 17.2326 18.7899 17.2521C19.1457 17.2716 19.4517 16.9347 19.4733 16.4997Z" fill="#ED6C30"/>
<path d="M8.8945 16.98C8.91447 17.4156 9.22019 17.7527 9.57659 17.7349C9.93147 17.7172 10.2034 17.3478 10.1819 16.9139C10.1619 16.4768 9.85619 16.1396 9.50132 16.159C9.14491 16.1751 8.873 16.5445 8.8945 16.98Z" fill="#ED6C30"/>
<path d="M6.91495 17.2531C7.26996 17.2336 7.54023 16.8652 7.51861 16.4302C7.49699 15.9951 7.19167 15.6582 6.83666 15.6777C6.48164 15.6971 6.21137 16.0656 6.23299 16.5006C6.25461 16.9356 6.55993 17.2725 6.91495 17.2531Z" fill="#ED6C30"/>
</svg>
