<svg width="27" height="42" viewBox="0 0 27 42" fill="none" xmlns="http://www.w3.org/2000/svg">
<circle cx="13.0998" cy="26.4026" r="13.0998" fill="#D7D7D7"/>
<path d="M8.02963 33.7227V31.7875L12.5513 27.6007C12.9359 27.2286 13.2584 26.8936 13.5189 26.5959C13.7835 26.2982 13.9841 26.0067 14.1206 25.7213C14.257 25.4319 14.3252 25.1197 14.3252 24.7848C14.3252 24.4126 14.2405 24.0921 14.0709 23.8234C13.9014 23.5504 13.6698 23.3416 13.3762 23.1969C13.0827 23.048 12.7498 22.9736 12.3776 22.9736C11.9889 22.9736 11.6499 23.0522 11.3604 23.2093C11.071 23.3664 10.8477 23.5918 10.6905 23.8854C10.5334 24.179 10.4548 24.5284 10.4548 24.9336H7.90558C7.90558 24.1025 8.09372 23.3809 8.47001 22.7689C8.8463 22.1569 9.37352 21.6835 10.0517 21.3485C10.7298 21.0136 11.5113 20.8461 12.3962 20.8461C13.3059 20.8461 14.0978 21.0074 14.7718 21.3299C15.45 21.6483 15.9772 22.0908 16.3535 22.6573C16.7298 23.2238 16.9179 23.873 16.9179 24.6049C16.9179 25.0845 16.8228 25.558 16.6326 26.0253C16.4465 26.4925 16.1136 27.0115 15.634 27.5821C15.1543 28.1486 14.4782 28.8288 13.6057 29.6228L11.7512 31.4401V31.5269H17.0854V33.7227H8.02963Z" fill="white"/>
<g clip-path="url(#clip0_6250_52562)">
<path d="M17.7691 8.25L20.0838 15.4991L14.2188 14.7393L17.7691 8.25Z" fill="#969696"/>
<path d="M20.0836 15.6886C20.0756 15.6886 20.0675 15.6886 20.0594 15.6869L14.1928 14.9272C14.1298 14.9191 14.0766 14.8804 14.0476 14.824C14.0185 14.7675 14.0202 14.7014 14.0492 14.6465L17.6011 8.15722C17.6382 8.09108 17.7124 8.05237 17.7866 8.05882C17.8624 8.06528 17.927 8.11689 17.9496 8.18948L20.2465 15.3869C20.2691 15.4176 20.282 15.4563 20.282 15.4966C20.282 15.6015 20.1965 15.6869 20.0917 15.6869C20.0917 15.6886 20.0868 15.6886 20.0836 15.6886ZM14.517 14.5852L19.811 15.2708L17.7237 8.72985L14.517 14.5852ZM9.48264 5.75377C9.48264 5.98736 9.38985 6.21137 9.22468 6.37654C9.05952 6.54171 8.8355 6.6345 8.60192 6.6345C8.11639 6.6345 7.72119 6.2393 7.72119 5.75377C7.72119 5.26663 8.11478 4.87305 8.60192 4.87305C9.08906 4.87305 9.48264 5.26663 9.48264 5.75377Z" fill="#969696"/>
<path d="M8.60207 6.82377C8.31814 6.82335 8.04596 6.71037 7.84519 6.50959C7.64441 6.30882 7.53143 6.03664 7.53101 5.75271C7.53143 5.46877 7.64441 5.19659 7.84519 4.99582C8.04596 4.79505 8.31814 4.68207 8.60207 4.68164C8.88601 4.68207 9.15819 4.79505 9.35896 4.99582C9.55973 5.19659 9.67271 5.46877 9.67314 5.75271C9.67271 6.03664 9.55973 6.30882 9.35896 6.50959C9.15819 6.71037 8.88601 6.82335 8.60207 6.82377ZM8.60207 5.06393C8.22139 5.06393 7.91169 5.37364 7.91169 5.75432C7.91169 6.135 8.22139 6.44471 8.60207 6.44471C8.98275 6.44471 9.29407 6.135 9.29407 5.75432C9.29407 5.37364 8.98275 5.06393 8.60207 5.06393ZM18.0949 4.87359C18.5804 4.90263 18.9514 5.32041 18.9224 5.80594C18.895 6.29147 18.4756 6.66086 17.9916 6.63343C17.8761 6.62681 17.7631 6.59746 17.6589 6.54707C17.5548 6.49668 17.4616 6.42624 17.3848 6.33978C17.3079 6.25332 17.2488 6.15254 17.211 6.04322C17.1731 5.9339 17.1572 5.81818 17.1641 5.7027C17.1932 5.21556 17.6094 4.84456 18.0949 4.87359Z" fill="#B7B7B7"/>
<path d="M18.0433 6.82411L17.9804 6.8225C17.6949 6.80637 17.432 6.67894 17.2432 6.46602C17.1495 6.36109 17.0775 6.23867 17.0312 6.10579C16.985 5.97291 16.9655 5.83219 16.9739 5.69175C16.9902 5.4191 17.1099 5.16296 17.3087 4.9756C17.5074 4.78825 17.7702 4.6838 18.0433 4.68359L18.1062 4.68521C18.6966 4.72069 19.1483 5.23042 19.1128 5.81918C19.096 6.09138 18.976 6.34692 18.7773 6.53367C18.5785 6.72042 18.316 6.8243 18.0433 6.82411ZM18.0804 5.06266C17.6772 5.06266 17.3755 5.34817 17.3545 5.71272C17.3433 5.89661 17.4046 6.07404 17.5271 6.21277C17.6497 6.35149 17.8175 6.43214 18.003 6.44343L18.0433 6.44505C18.4079 6.44505 18.7111 6.15954 18.7321 5.79499C18.7547 5.41431 18.4627 5.08686 18.082 5.06266H18.0804ZM8.87635 8.25005L6.56323 15.4991L12.4283 14.7394L8.87635 8.25005Z" fill="#969696"/>
<path d="M6.56314 15.6881C6.5083 15.6881 6.45346 15.6639 6.41636 15.6204C6.37442 15.5704 6.36151 15.5026 6.38087 15.4413L8.69399 8.19226C8.71657 8.11967 8.78109 8.06805 8.8569 8.0616C8.93917 8.05354 9.0053 8.09225 9.0424 8.16L12.5943 14.6493C12.6234 14.7041 12.625 14.7703 12.596 14.8267C12.5685 14.8832 12.5137 14.9203 12.4508 14.93L6.58573 15.6897C6.57928 15.6881 6.57121 15.6881 6.56314 15.6881ZM8.92304 8.7294L6.83414 15.2719L12.1282 14.5864L8.92304 8.7294Z" fill="#969696"/>
<path d="M14.6414 4.76122C14.6414 5.48871 14.051 6.07909 13.3235 6.07909C12.596 6.07909 12.004 5.48871 12.004 4.76122C12.004 4.03212 12.5944 3.44336 13.3235 3.44336C14.0526 3.44336 14.6414 4.03212 14.6414 4.76122ZM5.16952 5.75325C5.16952 6.33072 4.70174 6.79851 4.12265 6.79851C3.54518 6.79851 3.07739 6.33072 3.07739 5.75325C3.07739 5.17416 3.54518 4.70638 4.12265 4.70638C4.70174 4.70638 5.16952 5.17416 5.16952 5.75325ZM21.4759 5.75325C21.4759 6.33072 21.9436 6.79851 22.5227 6.79851C23.1002 6.79851 23.5696 6.33072 23.5696 5.75325C23.5696 5.4756 23.4593 5.20933 23.263 5.013C23.0667 4.81667 22.8004 4.70638 22.5227 4.70638C22.2451 4.70638 21.9788 4.81667 21.7825 5.013C21.5862 5.20933 21.4759 5.4756 21.4759 5.75325Z" fill="#B7B7B7"/>
<path d="M14.6414 4.76122C14.6414 5.48871 14.051 6.07909 13.3235 6.07909C12.596 6.07909 12.004 5.48871 12.004 4.76122C12.004 4.03212 12.5944 3.44336 13.3235 3.44336C14.0526 3.44336 14.6414 4.03212 14.6414 4.76122ZM5.16952 5.75325C5.16952 6.33072 4.70174 6.79851 4.12265 6.79851C3.54518 6.79851 3.07739 6.33072 3.07739 5.75325C3.07739 5.17416 3.54518 4.70638 4.12265 4.70638C4.70174 4.70638 5.16952 5.17416 5.16952 5.75325ZM21.4759 5.75325C21.4759 6.33072 21.9436 6.79851 22.5227 6.79851C23.1002 6.79851 23.5696 6.33072 23.5696 5.75325C23.5696 5.4756 23.4593 5.20933 23.263 5.013C23.0667 4.81667 22.8004 4.70638 22.5227 4.70638C22.2451 4.70638 21.9788 4.81667 21.7825 5.013C21.5862 5.20933 21.4759 5.4756 21.4759 5.75325Z" fill="#B7B7B7"/>
<path d="M22.2758 8.74091C22.2414 8.72564 22.2034 8.72086 22.1663 8.72717C22.1293 8.73349 22.095 8.75061 22.0677 8.7764L17.0737 13.4639L13.5104 8.14247C13.475 8.08924 13.4169 8.05859 13.3524 8.05859C13.2895 8.05859 13.2298 8.08924 13.1943 8.14086L9.61492 13.4639L4.62253 8.77479C4.59521 8.749 4.56088 8.73187 4.52385 8.72556C4.48683 8.71924 4.44876 8.72402 4.41444 8.7393C4.34508 8.76995 4.29991 8.84092 4.30314 8.91674L4.508 16.582C4.508 18.2482 8.389 19.5548 13.3443 19.5548C18.2996 19.5548 22.1806 18.2482 22.1806 16.5868L22.3854 8.91674C22.3887 8.84254 22.3451 8.77156 22.2758 8.74091Z" fill="#B7B7B7"/>
<mask id="mask0_6250_52562" style="mask-type:luminance" maskUnits="userSpaceOnUse" x="4" y="8" width="19" height="12">
<path d="M22.2758 8.74091C22.2414 8.72564 22.2034 8.72086 22.1663 8.72717C22.1293 8.73349 22.095 8.75061 22.0677 8.7764L17.0737 13.4639L13.5104 8.14247C13.475 8.08924 13.4169 8.05859 13.3524 8.05859C13.2895 8.05859 13.2298 8.08924 13.1943 8.14086L9.61492 13.4639L4.62253 8.77479C4.59521 8.749 4.56088 8.73187 4.52385 8.72556C4.48683 8.71924 4.44876 8.72402 4.41444 8.7393C4.34508 8.76995 4.29991 8.84092 4.30314 8.91674L4.508 16.582C4.508 18.2482 8.389 19.5548 13.3443 19.5548C18.2996 19.5548 22.1806 18.2482 22.1806 16.5868L22.3854 8.91674C22.3887 8.84254 22.3451 8.77156 22.2758 8.74091Z" fill="white"/>
</mask>
<g mask="url(#mask0_6250_52562)">
<path d="M22.342 12.7134L22.3436 12.715L22.2484 15.7556H22.2468C21.5693 15.7346 21.0435 15.0378 21.0693 14.1974C21.0951 13.3554 21.6645 12.6924 22.342 12.7134ZM4.35 12.7134L4.34839 12.715L4.44195 15.7556H4.44517C5.12104 15.7346 5.64851 15.0378 5.62109 14.1974C5.59528 13.3554 5.02587 12.6924 4.35 12.7134Z" fill="#707070"/>
</g>
<path d="M14.7429 15.6972C14.7429 16.5973 14.1171 17.328 13.3444 17.328C12.5734 17.328 11.9475 16.5973 11.9475 15.6972C11.9475 14.7955 12.5734 14.0664 13.3444 14.0664C14.1171 14.0648 14.7429 14.7955 14.7429 15.6972Z" fill="#D6B716"/>
<path d="M17.5012 16.5992C17.4802 17.0347 17.1592 17.3718 16.785 17.3541C16.4124 17.3363 16.1269 16.967 16.1494 16.533C16.172 16.0959 16.493 15.7588 16.8656 15.7781C17.2383 15.7943 17.5222 16.1637 17.5012 16.5992Z" fill="#2D2D2D"/>
<path d="M20.2966 16.1208C20.3193 15.6857 20.0348 15.3173 19.6611 15.2978C19.2875 15.2783 18.9661 15.6151 18.9434 16.0502C18.9207 16.4852 19.2053 16.8537 19.5789 16.8732C19.9526 16.8927 20.2739 16.5558 20.2966 16.1208Z" fill="#2D2D2D"/>
<path d="M9.189 16.5992C9.20997 17.0347 9.53096 17.3718 9.90519 17.3541C10.2778 17.3363 10.5633 16.967 10.5407 16.533C10.5198 16.0959 10.1988 15.7588 9.82615 15.7781C9.45192 15.7943 9.16641 16.1637 9.189 16.5992Z" fill="#2D2D2D"/>
<path d="M7.11067 16.8722C7.48344 16.8528 7.76722 16.4843 7.74452 16.0493C7.72182 15.6143 7.40123 15.2774 7.02847 15.2968C6.6557 15.3163 6.37192 15.6847 6.39462 16.1197C6.41732 16.5548 6.73791 16.8917 7.11067 16.8722Z" fill="#2D2D2D"/>
</g>
<defs>
<clipPath id="clip0_6250_52562">
<rect width="20.6471" height="20.6471" fill="white" transform="translate(3 0.123047)"/>
</clipPath>
</defs>
</svg>
