<svg width="27" height="42" viewBox="0 0 27 42" fill="none" xmlns="http://www.w3.org/2000/svg">
<circle cx="13.0998" cy="26.2014" r="13.0998" fill="#E1CB01"/>
<path d="M15.5561 20.219V32.9219H12.8704V22.7683H12.796L9.88697 24.5918V22.21L13.0317 20.219H15.5561Z" fill="white"/>
<g clip-path="url(#clip0_6250_52427)">
<path d="M17.7693 6.46875L20.0841 13.7178L14.219 12.9581L17.7693 6.46875Z" fill="#F79329"/>
<path d="M20.0841 13.9073C20.076 13.9073 20.068 13.9073 20.0599 13.9057L14.1932 13.1459C14.1303 13.1379 14.0771 13.0992 14.0481 13.0427C14.019 12.9863 14.0206 12.9201 14.0497 12.8653L17.6016 6.37597C17.6387 6.30983 17.7129 6.27112 17.7871 6.27757C17.8629 6.28403 17.9275 6.33564 17.95 6.40823L20.247 13.6057C20.2696 13.6363 20.2825 13.675 20.2825 13.7154C20.2825 13.8202 20.197 13.9057 20.0922 13.9057C20.0922 13.9073 20.0873 13.9073 20.0841 13.9073ZM14.5175 12.804L19.8115 13.4895L17.7242 6.9486L14.5175 12.804ZM9.48313 3.97252C9.48313 4.20611 9.39034 4.43012 9.22517 4.59529C9.06 4.76046 8.83599 4.85325 8.60241 4.85325C8.11688 4.85325 7.72168 4.45805 7.72168 3.97252C7.72168 3.48538 8.11526 3.0918 8.60241 3.0918C9.08955 3.0918 9.48313 3.48538 9.48313 3.97252Z" fill="#F79329"/>
<path d="M8.60256 5.04252C8.31863 5.0421 8.04644 4.92912 7.84567 4.72834C7.6449 4.52757 7.53192 4.25539 7.53149 3.97146C7.53192 3.68752 7.6449 3.41534 7.84567 3.21457C8.04644 3.0138 8.31863 2.90082 8.60256 2.90039C8.88649 2.90082 9.15868 3.0138 9.35945 3.21457C9.56022 3.41534 9.6732 3.68752 9.67363 3.97146C9.6732 4.25539 9.56022 4.52757 9.35945 4.72834C9.15868 4.92912 8.88649 5.0421 8.60256 5.04252ZM8.60256 3.28268C8.22188 3.28268 7.91217 3.59239 7.91217 3.97307C7.91217 4.35375 8.22188 4.66346 8.60256 4.66346C8.98324 4.66346 9.29456 4.35375 9.29456 3.97307C9.29456 3.59239 8.98324 3.28268 8.60256 3.28268ZM18.0954 3.09234C18.5809 3.12138 18.9519 3.53916 18.9229 4.02469C18.8954 4.51022 18.4761 4.87961 17.9921 4.85218C17.8766 4.84556 17.7636 4.81621 17.6594 4.76582C17.5553 4.71543 17.4621 4.64499 17.3853 4.55853C17.3084 4.47207 17.2493 4.37129 17.2115 4.26197C17.1736 4.15265 17.1577 4.03693 17.1646 3.92145C17.1937 3.43431 17.6098 3.06331 18.0954 3.09234Z" fill="#F79329"/>
<path d="M18.0433 5.04286L17.9804 5.04125C17.6949 5.02512 17.432 4.89769 17.2432 4.68477C17.1495 4.57984 17.0775 4.45742 17.0312 4.32454C16.985 4.19166 16.9655 4.05094 16.9739 3.9105C16.9902 3.63785 17.1099 3.38171 17.3087 3.19435C17.5074 3.007 17.7702 2.90255 18.0433 2.90234L18.1062 2.90396C18.6966 2.93944 19.1483 3.44917 19.1128 4.03793C19.096 4.31013 18.976 4.56567 18.7773 4.75242C18.5785 4.93917 18.316 5.04305 18.0433 5.04286ZM18.0804 3.28141C17.6772 3.28141 17.3755 3.56692 17.3545 3.93147C17.3433 4.11536 17.4046 4.29279 17.5271 4.43152C17.6497 4.57024 17.8175 4.65089 18.003 4.66218L18.0433 4.6638C18.4079 4.6638 18.7111 4.37829 18.7321 4.01374C18.7547 3.63306 18.4627 3.30561 18.082 3.28141H18.0804ZM8.87635 6.4688L6.56323 13.7179L12.4283 12.9581L8.87635 6.4688Z" fill="#F79329"/>
<path d="M6.56339 13.9069C6.50855 13.9069 6.4537 13.8827 6.4166 13.8391C6.37466 13.7891 6.36176 13.7214 6.38111 13.6601L8.69423 6.41101C8.71681 6.33842 8.78134 6.2868 8.85715 6.28035C8.93941 6.27229 9.00555 6.311 9.04265 6.37875L12.5946 12.8681C12.6236 12.9229 12.6252 12.989 12.5962 13.0455C12.5688 13.1019 12.5139 13.139 12.451 13.1487L6.58597 13.9085C6.57952 13.9069 6.57145 13.9069 6.56339 13.9069ZM8.92328 6.94815L6.83438 13.4907L12.1284 12.8051L8.92328 6.94815Z" fill="#F79329"/>
<path d="M14.6414 2.98193C14.6414 3.70941 14.051 4.29979 13.3235 4.29979C12.596 4.29979 12.004 3.70941 12.004 2.98193C12.004 2.25283 12.5944 1.66406 13.3235 1.66406C14.0526 1.66406 14.6414 2.25283 14.6414 2.98193ZM5.16952 3.97395C5.16952 4.55142 4.70174 5.01921 4.12265 5.01921C3.54518 5.01921 3.07739 4.55142 3.07739 3.97395C3.07739 3.39487 3.54518 2.92708 4.12265 2.92708C4.70174 2.92708 5.16952 3.39487 5.16952 3.97395ZM21.4759 3.97395C21.4759 4.55142 21.9436 5.01921 22.5227 5.01921C23.1002 5.01921 23.5696 4.55142 23.5696 3.97395C23.5696 3.69631 23.4593 3.43003 23.263 3.2337C23.0667 3.03738 22.8004 2.92708 22.5227 2.92708C22.2451 2.92708 21.9788 3.03738 21.7825 3.2337C21.5862 3.43003 21.4759 3.69631 21.4759 3.97395Z" fill="#FCC21B"/>
<path d="M14.6414 2.98193C14.6414 3.70941 14.051 4.29979 13.3235 4.29979C12.596 4.29979 12.004 3.70941 12.004 2.98193C12.004 2.25283 12.5944 1.66406 13.3235 1.66406C14.0526 1.66406 14.6414 2.25283 14.6414 2.98193ZM5.16952 3.97395C5.16952 4.55142 4.70174 5.01921 4.12265 5.01921C3.54518 5.01921 3.07739 4.55142 3.07739 3.97395C3.07739 3.39487 3.54518 2.92708 4.12265 2.92708C4.70174 2.92708 5.16952 3.39487 5.16952 3.97395ZM21.4759 3.97395C21.4759 4.55142 21.9436 5.01921 22.5227 5.01921C23.1002 5.01921 23.5696 4.55142 23.5696 3.97395C23.5696 3.69631 23.4593 3.43003 23.263 3.2337C23.0667 3.03738 22.8004 2.92708 22.5227 2.92708C22.2451 2.92708 21.9788 3.03738 21.7825 3.2337C21.5862 3.43003 21.4759 3.69631 21.4759 3.97395Z" fill="#FCC21B"/>
<path d="M22.2758 6.95966C22.2414 6.94439 22.2034 6.93961 22.1663 6.94592C22.1293 6.95224 22.095 6.96936 22.0677 6.99515L17.0737 11.6827L13.5104 6.36122C13.475 6.30799 13.4169 6.27734 13.3524 6.27734C13.2895 6.27734 13.2298 6.30799 13.1943 6.35961L9.61492 11.6827L4.62253 6.99354C4.59521 6.96775 4.56088 6.95062 4.52385 6.94431C4.48683 6.93799 4.44876 6.94277 4.41444 6.95805C4.34508 6.9887 4.29991 7.05967 4.30314 7.13549L4.508 14.8007C4.508 16.467 8.389 17.7736 13.3443 17.7736C18.2996 17.7736 22.1806 16.467 22.1806 14.8055L22.3854 7.13549C22.3887 7.06129 22.3451 6.99031 22.2758 6.95966Z" fill="#FCC21B"/>
<mask id="mask0_6250_52427" style="mask-type:luminance" maskUnits="userSpaceOnUse" x="4" y="6" width="19" height="12">
<path d="M22.2758 6.95966C22.2414 6.94439 22.2034 6.93961 22.1663 6.94592C22.1293 6.95224 22.095 6.96936 22.0677 6.99515L17.0737 11.6827L13.5104 6.36122C13.475 6.30799 13.4169 6.27734 13.3524 6.27734C13.2895 6.27734 13.2298 6.30799 13.1943 6.35961L9.61492 11.6827L4.62253 6.99354C4.59521 6.96775 4.56088 6.95062 4.52385 6.94431C4.48683 6.93799 4.44876 6.94277 4.41444 6.95805C4.34508 6.9887 4.29991 7.05967 4.30314 7.13549L4.508 14.8007C4.508 16.467 8.389 17.7736 13.3443 17.7736C18.2996 17.7736 22.1806 16.467 22.1806 14.8055L22.3854 7.13549C22.3887 7.06129 22.3451 6.99031 22.2758 6.95966Z" fill="white"/>
</mask>
<g mask="url(#mask0_6250_52427)">
<path d="M22.342 10.9321L22.3436 10.9337L22.2484 13.9743H22.2468C21.5693 13.9534 21.0435 13.2565 21.0693 12.4161C21.0951 11.5741 21.6645 10.9112 22.342 10.9321ZM4.35 10.9321L4.34839 10.9337L4.44195 13.9743H4.44517C5.12104 13.9534 5.64851 13.2565 5.62109 12.4161C5.59528 11.5741 5.02587 10.9112 4.35 10.9321Z" fill="#D7598B"/>
</g>
<path d="M14.7429 13.914C14.7429 14.8141 14.1171 15.5448 13.3444 15.5448C12.5734 15.5448 11.9475 14.8141 11.9475 13.914C11.9475 13.0123 12.5734 12.2832 13.3444 12.2832C14.1171 12.2816 14.7429 13.0123 14.7429 13.914Z" fill="#D7598B"/>
<path d="M17.5014 14.8179C17.4805 15.2535 17.1595 15.5906 16.7852 15.5728C16.4126 15.5551 16.1271 15.1857 16.1497 14.7518C16.1723 14.3147 16.4933 13.9775 16.8659 13.9969C17.2385 14.013 17.5224 14.3824 17.5014 14.8179Z" fill="#ED6C30"/>
<path d="M20.2968 14.3395C20.3195 13.9045 20.035 13.536 19.6614 13.5165C19.2877 13.497 18.9664 13.8339 18.9437 14.2689C18.921 14.704 19.2055 15.0724 19.5791 15.0919C19.9528 15.1114 20.2741 14.7746 20.2968 14.3395Z" fill="#ED6C30"/>
<path d="M9.189 14.8179C9.20997 15.2535 9.53096 15.5906 9.90519 15.5728C10.2778 15.5551 10.5633 15.1857 10.5407 14.7518C10.5198 14.3147 10.1988 13.9775 9.82615 13.9969C9.45192 14.013 9.16641 14.3824 9.189 14.8179Z" fill="#ED6C30"/>
<path d="M7.11067 15.091C7.48344 15.0715 7.76722 14.7031 7.74452 14.2681C7.72182 13.833 7.40123 13.4961 7.02847 13.5156C6.6557 13.535 6.37192 13.9035 6.39462 14.3385C6.41732 14.7735 6.73791 15.1104 7.11067 15.091Z" fill="#ED6C30"/>
</g>
<defs>
<clipPath id="clip0_6250_52427">
<rect width="20.6471" height="17.2059" fill="white" transform="translate(3 0.921875)"/>
</clipPath>
</defs>
</svg>
