<svg width="19" height="19" viewBox="0 0 19 19" fill="none" xmlns="http://www.w3.org/2000/svg">
<g clip-path="url(#clip0_6555_1193)">
<path d="M12.964 0.467651C13.0059 0.467651 13.0478 0.467651 13.092 0.467651C13.1948 1.73705 12.7103 2.68554 12.1214 3.37241C11.5436 4.05453 10.7524 4.7161 9.47273 4.61572C9.38737 3.3645 9.87268 2.48636 10.4607 1.80107C11.0061 1.16242 12.006 0.594117 12.964 0.467651Z" fill="black"/>
<path d="M16.8378 13.6802C16.8378 13.6928 16.8378 13.7039 16.8378 13.7158C16.4781 14.8049 15.9652 15.7384 15.3392 16.6047C14.7677 17.3912 14.0674 18.4495 12.817 18.4495C11.7365 18.4495 11.0188 17.7547 9.91141 17.7358C8.74002 17.7168 8.09584 18.3167 7.02484 18.4677C6.90232 18.4677 6.77981 18.4677 6.65967 18.4677C5.87321 18.3539 5.23851 17.731 4.77612 17.1698C3.41266 15.5116 2.35905 13.3696 2.16302 10.6284C2.16302 10.3597 2.16302 10.0917 2.16302 9.82298C2.24602 7.86119 3.19925 6.26614 4.46628 5.49312C5.13497 5.08211 6.05421 4.73195 7.07779 4.88846C7.51647 4.95643 7.96463 5.10661 8.35747 5.25521C8.72975 5.39827 9.1953 5.65199 9.63635 5.63855C9.93512 5.62986 10.2323 5.47415 10.5335 5.36428C11.4156 5.04575 12.2803 4.68058 13.42 4.8521C14.7898 5.05918 15.762 5.6678 16.3627 6.60681C15.204 7.34426 14.2879 8.45557 14.4444 10.3533C14.5835 12.0772 15.5858 13.0858 16.8378 13.6802Z" fill="black"/>
</g>
<defs>
<clipPath id="clip0_6555_1193">
<rect width="18" height="18" fill="white" transform="translate(0.5 0.467651)"/>
</clipPath>
</defs>
</svg>
