<svg width="18" height="19" viewBox="0 0 18 19" fill="none" xmlns="http://www.w3.org/2000/svg">
<g clip-path="url(#clip0_6555_1043)">
<path d="M7.515 18.3777C3.24 17.6127 0 13.9227 0 9.46765C0 4.51765 4.05 0.467651 9 0.467651C13.95 0.467651 18 4.51765 18 9.46765C18 13.9227 14.76 17.6127 10.485 18.3777L9.99 17.9727H8.01L7.515 18.3777Z" fill="url(#paint0_linear_6555_1043)"/>
<path d="M12.51 11.9877L12.915 9.46766H10.53V7.71266C10.53 6.99266 10.8 6.45266 11.88 6.45266H13.05V4.15766C12.42 4.06766 11.7 3.97766 11.07 3.97766C9 3.97766 7.56 5.23766 7.56 7.48766V9.46766H5.31V11.9877H7.56V18.3327C8.055 18.4227 8.55 18.4677 9.045 18.4677C9.54 18.4677 10.035 18.4227 10.53 18.3327V11.9877H12.51Z" fill="white"/>
</g>
<defs>
<linearGradient id="paint0_linear_6555_1043" x1="9.00045" y1="17.8417" x2="9.00045" y2="0.464336" gradientUnits="userSpaceOnUse">
<stop stop-color="#0062E0"/>
<stop offset="1" stop-color="#19AFFF"/>
</linearGradient>
<clipPath id="clip0_6555_1043">
<rect width="18" height="18" fill="white" transform="translate(0 0.467651)"/>
</clipPath>
</defs>
</svg>
