<svg width="40" height="14" viewBox="0 0 40 14" fill="none" xmlns="http://www.w3.org/2000/svg">
<g clip-path="url(#clip0_6250_28079)">
<path d="M20.3012 6.40724C21.411 4.80016 20.8545 4.5531 20.7978 4.58283C19.7181 5.14514 18.8958 6.83783 18.9649 7.40163C19.0601 8.17781 19.7118 7.26021 20.3012 6.40724ZM24.5057 4.93244C24.3047 5.26415 24.1749 5.62865 24.1234 6.00588C24.095 6.19437 24.0619 7.01327 24.0692 7.12457C24.0806 7.30532 24.1055 7.48512 24.1439 7.66267C24.1702 7.75135 24.3348 8.07003 23.8067 8.13735C23.496 8.17688 23.5021 7.45811 23.496 7.34047C23.4841 7.08978 23.5291 6.20901 23.5578 6.07827C23.5882 5.94456 23.5276 6.08625 23.4705 6.17378C23.3388 6.37746 23.1856 6.65303 23.0021 6.92436C22.7611 7.28113 22.2237 8.13097 21.4906 8.08038C21.2164 8.06122 20.9375 8.02858 20.7781 7.32209C20.717 7.0513 20.7407 6.69531 20.747 6.48161C20.7393 6.43757 20.7458 6.38709 20.706 6.40768C20.4464 6.96763 19.6032 8.61787 18.6504 8.2469C18.2092 8.07559 17.9918 7.549 18.4789 6.52069C18.9534 5.51848 20.1505 4.2756 20.6273 4.19215C21.0523 4.11756 21.0965 4.31546 21.0965 4.31546C21.1352 4.24241 21.4002 4.25099 21.4581 4.35575C21.5355 4.49585 21.5872 4.52013 21.5355 4.88972C21.5063 5.10287 21.2921 6.43614 21.3291 6.89425C21.3461 7.10894 21.3859 7.6379 21.622 7.66339C22.0343 7.70902 22.534 6.89821 22.5907 6.81349C22.7018 6.64785 23.5914 5.26906 23.7009 5.06775C23.8188 4.85069 23.8933 4.69221 23.9693 4.55403C24.0454 4.41586 24.2746 4.4005 24.4743 4.52651C24.6741 4.65252 24.5741 4.8257 24.5057 4.93255V4.93244ZM5.68014 5.60783C5.15707 5.6599 4.20334 6.8288 4.00683 7.24392C3.80592 7.66779 3.73339 8.07641 3.97182 8.2469C4.46518 8.60102 4.97557 8.00072 5.12557 7.86117C5.21841 7.7753 5.86748 7.12077 6.03071 6.45601C6.13861 6.01705 6.18857 5.55751 5.68014 5.60783ZM5.95276 10.7959C5.91667 10.8555 5.87957 10.9147 5.84146 10.9732C5.45606 11.5647 4.9505 12.0924 4.32363 12.4728C3.47459 12.9878 2.67718 13.1857 1.78621 13.1758C1.26814 13.1703 0.768529 13.0927 0.342519 12.8422C-0.00667255 12.6369 -0.0564553 12.3159 0.0493028 12.1039C0.196328 11.8087 0.655268 11.8374 0.850527 12.0069C1.33805 12.4295 1.62906 12.5934 2.25587 12.5653C2.77261 12.538 3.27565 12.4012 3.72612 12.1656C6.31898 10.7659 6.29528 8.24965 6.40056 6.73345C6.4117 6.64125 6.35751 6.7083 6.33917 6.7585C6.21405 7.08109 6.05915 7.39314 5.87618 7.69119C5.61043 8.13513 5.2344 8.51436 4.77906 8.79766C4.45071 8.99814 3.91745 9.09519 3.54194 8.86889C3.40581 8.78632 2.60977 8.35556 3.28445 7.07222C3.70873 6.26477 4.60154 5.70465 4.80294 5.58592C5.2954 5.29515 5.64733 5.15687 6.01635 5.18307C6.20429 5.19573 6.23138 5.2641 6.37108 5.26069C6.45064 5.17437 6.49453 5.11096 6.62536 5.07754C6.80102 5.05162 7.00962 5.18764 7.08983 5.44543C7.17005 5.70323 6.96115 6.11735 6.90839 6.31652C6.90881 6.31641 7.09436 8.89966 5.95276 10.7959ZM8.90678 4.9756C8.58897 4.9811 8.61499 5.19315 8.54835 5.37866C8.48386 5.56362 7.9362 7.22691 7.86664 7.5251C7.79709 7.8233 7.74939 8.09111 7.84997 8.50034C7.95227 8.91871 8.471 8.79645 8.52602 8.72301C8.77946 8.39492 8.55496 8.29826 8.54681 8.06909C8.54032 7.82958 8.61124 7.57834 8.66477 7.25405C8.68383 7.13844 8.72206 6.61279 8.74082 6.54145C8.76196 6.46438 8.9409 5.87905 9.19868 5.52305C9.30903 5.37046 9.40615 4.96761 8.90678 4.9756ZM9.77178 3.03035C9.72831 2.94778 9.4919 2.68768 9.18332 2.88959C8.72432 3.19005 9.25359 3.60522 9.33856 3.8089C9.42354 4.01258 9.88236 4.18323 9.81537 3.78138C9.8056 3.72358 9.89802 3.26948 9.77178 3.03035ZM14.8398 4.98952C14.6904 5.02029 14.3923 5.07589 14.2047 5.10512C13.9206 5.14916 13.7659 5.31431 13.7766 5.48122C13.7873 5.64933 13.8495 5.72855 14.103 5.68407C14.3321 5.64399 14.5277 5.46387 14.7282 5.4631C14.7282 5.4631 14.3141 7.07706 14.287 7.29335C14.2599 7.50963 14.1375 8.10135 14.389 8.43709C14.9488 9.18443 16.0683 8.32782 16.1729 8.23451C16.2498 8.16554 16.9571 7.59221 17.1968 7.13239C17.3183 6.89904 17.1115 6.84751 16.9715 6.7999C16.8315 6.75228 16.5357 6.83458 16.4944 7.00523C16.4043 7.37592 15.4249 8.37593 14.9402 8.17545C14.3689 7.93874 15.3995 5.28656 15.3995 5.28656C15.5224 5.23559 16.1448 5.08729 16.7341 4.94719C17.414 4.78617 19.4919 4.40689 19.0229 3.83301C18.7934 3.55226 18.2002 3.97977 17.9992 4.06928C17.2789 4.38856 15.516 4.8573 15.516 4.8573C15.516 4.8573 15.7449 3.90386 15.819 3.71603C15.9041 3.50107 16.218 3.36042 16.2636 2.97773C16.3175 2.5326 15.7375 2.32992 15.4607 2.81726C15.4034 2.91728 15.3245 3.19335 15.3167 3.20023C15.2424 3.26629 14.6022 3.50261 13.9727 3.78005C13.7743 3.86747 12.6474 4.24626 12.6453 4.24378C12.6468 4.23586 12.9875 3.23744 13.3821 2.40451C13.6447 1.85067 14.0147 1.07971 14.6702 0.923211C15.284 0.776947 14.9946 1.368 15.2708 1.52164C15.6211 1.7164 15.836 1.47078 15.8897 1.23589C15.9317 1.05191 15.9206 0.086531 14.8589 0.183031C13.8486 0.275127 13.0436 1.70077 12.0482 4.36472C12.0375 4.3754 11.2469 4.8475 10.5914 4.96882C10.2673 5.02872 10.1239 5.05464 10.081 5.16149C10.0456 5.24721 10.0381 5.3406 10.0592 5.43024C10.0804 5.51988 10.1293 5.60187 10.2001 5.66618C10.3869 5.87228 11.8464 4.97923 11.8448 4.98539C11.8151 5.02178 10.6176 9.23959 10.608 9.2888C10.539 9.64006 10.1529 10.5663 10.1738 10.9867C10.1854 11.2029 10.2771 11.6531 10.614 11.633C11.3194 11.6758 11.1833 10.7597 11.1359 10.5917C11.0371 10.2442 11.5439 7.94688 11.9987 6.25387C12.0914 5.90855 12.2819 5.34194 12.315 5.20718C12.3341 5.11012 12.3776 5.01855 12.4419 4.93984C12.5062 4.86113 12.5896 4.79747 12.6854 4.75397C12.6854 4.75397 15.2212 3.64898 15.2448 3.65537C15.2449 3.65779 14.8398 4.98952 14.8398 4.98952ZM32.2129 7.09787C32.7039 7.52709 33.1922 7.25498 33.4435 7.06782C34.2144 6.49476 35.8037 3.88311 35.8037 3.88311C35.8128 3.97052 35.1415 6.96581 36.039 7.29792C36.6144 7.51041 37.9538 6.45403 38.1072 6.35621C38.9915 5.79191 38.4497 5.58553 38.279 5.58553C37.823 5.58421 37.9051 5.88945 37.7804 6.02652C37.5746 6.25299 36.7478 7.03941 36.3429 6.83062C36.1249 6.71766 36.1786 6.05223 36.2004 5.89887C36.3278 4.31347 36.3618 4.02722 36.4617 3.66258C36.5177 3.45989 36.7849 3.46523 36.9484 3.43749C39.1565 3.06035 39.5526 3.21245 39.8279 3.08837C40.0464 2.98901 40.0856 2.56128 39.7756 2.4693C39.6337 2.42807 39.454 2.52787 39.129 2.63995C38.8056 2.75043 37.1763 3.08347 36.9367 3.11634C36.716 3.14584 36.6687 3.11711 36.6151 3.0532C36.5624 2.98995 36.664 2.24602 36.9805 1.62937C37.1182 1.3625 37.1218 0.954093 36.6721 0.922495C36.4872 0.910219 36.3301 0.958882 36.2598 1.1046C36.1898 1.24937 36.0551 2.57053 36.0236 2.6585C35.9917 2.74537 35.8211 2.81319 35.7834 2.96396C35.7457 3.11474 35.772 3.20882 35.6622 3.24273C35.5513 3.27757 35.2475 3.30455 35.1225 3.33235C34.991 3.36196 34.9129 3.59454 34.9081 3.72903C34.9033 3.86351 35.138 3.78358 35.2512 3.76833C35.3804 3.75093 35.6964 3.605 35.4715 3.8552C35.3863 3.95081 33.8536 6.16574 33.255 6.62182C32.5663 7.14593 32.6155 6.11537 32.6327 5.93982C32.7368 4.88884 33.2342 4.18378 33.3056 4.01643C33.3759 3.84826 33.4055 3.34996 32.8183 3.46006C32.7499 3.47603 32.687 3.50784 32.6356 3.5525C32.5841 3.59716 32.5458 3.65319 32.5243 3.71532C32.5233 3.71892 32.5227 3.72261 32.5226 3.72633C32.4635 4.21752 31.4439 6.42546 32.2129 7.09804V7.09787ZM33.1079 1.95548C33.2888 2.28158 33.5979 2.16626 33.6505 2.08209C33.7033 1.99858 33.7455 1.98124 33.8954 1.92542C34.1706 1.8238 33.6954 1.36723 33.2434 1.49604C33.2144 1.50772 33.1894 1.52657 33.1711 1.55051C33.1529 1.57445 33.1421 1.60257 33.14 1.63179C33.1523 1.72736 33.0463 1.84643 33.1079 1.95564V1.95548ZM27.5649 4.51825C27.5649 4.51825 27.8615 4.28199 27.987 4.2881C28.0453 4.29074 27.9437 4.43997 28.1475 4.53218C28.2557 4.58172 28.0291 5.2482 27.581 5.88791C26.5521 7.35671 26.0643 7.29043 26.0219 6.84432C25.9349 5.91362 27.2665 4.70778 27.5649 4.51825ZM28.0872 5.72249C28.0872 5.72249 28.0834 6.03896 28.1101 6.30953C28.1339 6.5524 28.2237 7.06061 28.3162 7.22498C28.4596 7.4782 28.7637 7.4782 28.9978 7.35412C29.3043 7.19135 29.1594 6.88687 29.0427 6.78553C28.9408 6.6963 28.6932 6.58185 28.6182 6.19954C28.5741 5.97324 28.6102 4.95341 28.6827 4.59664C28.7578 4.26922 28.87 3.95001 29.0174 3.64431C29.1395 3.42164 29.8749 2.14666 29.8857 1.71866C29.8902 1.53188 29.682 1.37703 29.342 1.4094C29.0019 1.44177 28.9173 1.6935 28.9167 1.85854C28.9158 2.02264 28.5557 3.17821 28.5371 3.23078C28.5073 3.30972 28.4483 3.78286 28.2726 3.78391C27.8814 3.77758 27.4996 3.8957 27.1913 4.11849C27.0218 4.23718 26.4464 4.65097 26.1143 5.08272C25.9635 5.27814 25.2783 6.09242 25.3558 7.06446C25.4263 7.94832 26.0953 7.79192 26.2872 7.76357C27.1603 7.63394 27.7741 6.3065 27.863 6.14372C28.0203 5.85477 27.9672 5.9325 28.0872 5.72249ZM24.6479 2.4933C24.584 2.56596 24.5999 2.79656 24.7392 2.9158C24.8441 3.00569 24.8587 3.02226 24.8621 3.09492C24.8681 3.22891 24.9606 3.23634 25.1031 3.23447C25.2774 3.23216 25.4199 3.12036 25.4375 2.89284C25.4552 2.66533 25.2167 2.47073 25.0248 2.42691C24.8329 2.38309 24.7309 2.39823 24.6479 2.4933Z" fill="white"/>
</g>
<defs>
<clipPath id="clip0_6250_28079">
<rect width="40" height="13" fill="white" transform="translate(0 0.175781)"/>
</clipPath>
</defs>
</svg>
