<svg width="24" height="24" viewBox="0 0 24 24" fill="none" xmlns="http://www.w3.org/2000/svg">
<path d="M21.8055 10.0415L21 10.0415L21 10L12 10L12 14L17.6515 14C16.827 16.3285 14.6115 18 12 18C8.6865 18 6 15.3135 6 12C6 8.6865 8.6865 6 12 6C13.5295 6 14.921 6.577 15.9805 7.5195L18.809 4.691C17.023 3.0265 14.634 2 12 2C6.4775 2 2 6.4775 2 12C2 17.5225 6.4775 22 12 22C17.5225 22 22 17.5225 22 12C22 11.3295 21.931 10.675 21.8055 10.0415Z" fill="#FBC02D"/>
<path d="M3.15308 7.3455L6.43858 9.755C7.32758 7.554 9.48058 6 12.0001 6C13.5296 6 14.9211 6.577 15.9806 7.5195L18.8091 4.691C17.0231 3.0265 14.6341 2 12.0001 2C8.15908 2 4.82808 4.1685 3.15308 7.3455Z" fill="#E53935"/>
<path d="M12 22.0003C14.583 22.0003 16.93 21.0118 18.7045 19.4043L15.6095 16.7853C14.6055 17.5458 13.3575 18.0003 12 18.0003C9.39897 18.0003 7.19047 16.3418 6.35847 14.0273L3.09747 16.5398C4.75247 19.7783 8.11347 22.0003 12 22.0003Z" fill="#4CAF50"/>
<path d="M21.8055 10.0415L21.7975 10L21 10L12 10L12 14L17.6515 14C17.2555 15.1185 16.536 16.083 15.608 16.7855C15.6085 16.785 15.609 16.785 15.6095 16.7845L18.7045 19.4035C18.4855 19.6025 22 17 22 12C22 11.3295 21.931 10.675 21.8055 10.0415Z" fill="#1565C0"/>
</svg>
