<svg width="37" height="37" viewBox="0 0 37 37" fill="none" xmlns="http://www.w3.org/2000/svg">
<path d="M36.5 0.132812V36.1328H0.5V0.132812H36.5Z" fill="white" fill-opacity="0.01"/>
<path d="M18.5 3.67383C26.7714 3.67389 33.5 9.20037 33.5 15.9932C33.4999 18.7116 32.4589 21.1599 30.2852 23.5723C27.1382 27.238 20.1013 31.7028 18.5 32.3857C16.8995 33.0685 17.1359 31.9512 17.2012 31.5674C17.2388 31.3414 17.4112 30.2917 17.415 30.2686C17.4656 29.8809 17.5174 29.2794 17.3662 28.8955C17.198 28.473 16.5335 28.253 16.0449 28.1465C8.83675 27.1821 3.50026 22.0827 3.5 15.9932C3.5 9.20033 10.2297 3.67383 18.5 3.67383ZM8.71289 12.6992C8.55174 12.6992 8.42115 12.8313 8.4209 12.9941V19.6006C8.42097 19.7609 8.55133 19.8965 8.71289 19.8965H12.916C13.0773 19.8965 13.2079 19.7636 13.208 19.6006V18.5371C13.208 18.374 13.0773 18.2412 12.916 18.2412H10.0576V12.9941C10.0574 12.8314 9.92638 12.6994 9.76562 12.6992H8.71289ZM14.4004 12.6992C14.2391 12.6992 14.1075 12.8317 14.1074 12.9941V19.6016C14.1076 19.7642 14.2392 19.8965 14.4004 19.8965H15.4521C15.6134 19.8965 15.744 19.7642 15.7441 19.6016V12.9941C15.744 12.8317 15.6134 12.6992 15.4521 12.6992H14.4004ZM17.0596 12.6992C16.8983 12.6992 16.7677 12.8317 16.7676 12.9941V19.6016C16.7677 19.7642 16.8983 19.8965 17.0596 19.8965H18.1113C18.2729 19.8965 18.4042 19.7642 18.4043 19.6016V15.6768L21.4023 19.7715C21.4561 19.8485 21.5477 19.8964 21.6416 19.8965H22.6943C22.8558 19.8964 22.9862 19.7642 22.9863 19.6016V12.9941C22.9862 12.8318 22.8558 12.6993 22.6943 12.6992H21.6416C21.4805 12.6994 21.3497 12.8319 21.3496 12.9941V16.9199L18.3545 12.8311C18.2991 12.7471 18.2093 12.7047 18.1113 12.6992H17.0596ZM24.3018 12.6992C24.1405 12.6992 24.01 12.834 24.0098 12.9941V19.6006C24.0098 19.7605 24.1396 19.8964 24.3008 19.8965H28.5049C28.6661 19.8963 28.7959 19.7633 28.7959 19.6006V18.5371C28.7959 18.3744 28.6661 18.2414 28.5049 18.2412H25.6465V17.125H28.5049C28.6661 17.1248 28.7959 16.9921 28.7959 16.8291V15.7656C28.7958 15.6028 28.666 15.4709 28.5049 15.4707H25.6465V14.3535H28.5049C28.666 14.3533 28.7958 14.2218 28.7959 14.0586V12.9951C28.7959 12.8322 28.6661 12.6994 28.5049 12.6992H24.3018Z" fill="#2CCF54"/>
</svg>
