<svg width="37" height="37" viewBox="0 0 37 37" fill="none" xmlns="http://www.w3.org/2000/svg">
<path d="M29 30.1328H30.5M24.5 30.1328H21.5V25.6328M26 25.6328H30.5V21.1328H29M21.5 21.1328H24.5M6.5 25.6324C6.5 24.2346 6.5 23.5357 6.72836 22.9844C7.03284 22.2493 7.61648 21.6657 8.35156 21.3612C8.90288 21.1328 9.60179 21.1328 10.9996 21.1328C12.3974 21.1328 13.0971 21.1328 13.6484 21.3612C14.3835 21.6657 14.967 22.2493 15.2715 22.9844C15.4998 23.5357 15.4998 24.235 15.4998 25.6328C15.4998 27.0306 15.4998 27.7296 15.2715 28.2809C14.967 29.0159 14.3835 29.5998 13.6484 29.9043C13.0971 30.1327 12.3974 30.1327 10.9996 30.1327C9.60179 30.1327 8.90288 30.1327 8.35156 29.9043C7.61648 29.5998 7.03284 29.0163 6.72836 28.2812C6.5 27.7299 6.5 27.0302 6.5 25.6324ZM21.5 10.6324C21.5 9.2346 21.5 8.53569 21.7284 7.98438C22.0328 7.24929 22.6165 6.66566 23.3516 6.36117C23.9029 6.13281 24.6018 6.13281 25.9996 6.13281C27.3974 6.13281 28.0971 6.13281 28.6484 6.36117C29.3835 6.66566 29.967 7.24929 30.2715 7.98438C30.4998 8.53569 30.4998 9.23499 30.4998 10.6328C30.4998 12.0306 30.4998 12.7296 30.2715 13.2809C29.967 14.0159 29.3835 14.5998 28.6484 14.9043C28.0971 15.1327 27.3974 15.1327 25.9996 15.1327C24.6018 15.1327 23.9029 15.1327 23.3516 14.9043C22.6165 14.5998 22.0328 14.0163 21.7284 13.2812C21.5 12.7299 21.5 12.0303 21.5 10.6324ZM6.5 10.6324C6.5 9.2346 6.5 8.53569 6.72836 7.98438C7.03284 7.24929 7.61648 6.66566 8.35156 6.36117C8.90288 6.13281 9.60179 6.13281 10.9996 6.13281C12.3974 6.13281 13.0971 6.13281 13.6484 6.36117C14.3835 6.66566 14.967 7.24929 15.2715 7.98438C15.4998 8.53569 15.4998 9.23499 15.4998 10.6328C15.4998 12.0306 15.4998 12.7296 15.2715 13.2809C14.967 14.0159 14.3835 14.5998 13.6484 14.9043C13.0971 15.1327 12.3974 15.1327 10.9996 15.1327C9.60179 15.1327 8.90288 15.1327 8.35156 14.9043C7.61648 14.5998 7.03284 14.0163 6.72836 13.2812C6.5 12.7299 6.5 12.0303 6.5 10.6324Z" stroke="#161616" stroke-width="2.25" stroke-linecap="round" stroke-linejoin="round"/>
</svg>
