<svg width="198" height="195" viewBox="0 0 198 195" fill="none" xmlns="http://www.w3.org/2000/svg">
<g opacity="0.447866">
<path d="M123.729 6.05019C123.729 9.246 121.138 11.8368 117.942 11.8368C114.746 11.8368 112.156 9.246 112.156 6.05019C112.156 2.85457 114.746 0.263916 117.942 0.263916C121.138 0.263916 123.729 2.85457 123.729 6.05019Z" fill="#41AE80"/>
</g>
<g opacity="0.821265">
<path d="M78.0607 20.6893L74.6243 22.6733C74.0021 23.0326 73.2066 22.8193 72.8473 22.1973L66.6423 11.4496C66.283 10.8276 66.4963 10.0321 67.1183 9.67301L70.5549 7.68883C71.1769 7.32975 71.9724 7.54285 72.3317 8.16487L78.5367 18.9125C78.896 19.5348 78.6827 20.3301 78.0607 20.6893Z" fill="#4683F5"/>
</g>
<g opacity="0.821265">
<path d="M20.0496 42.6509L20.8225 42.913C21.6989 43.2103 22.6656 43.0571 23.4075 42.5035L24.0617 42.0154C25.9297 40.6214 28.5856 41.9744 28.5558 44.3052L28.5454 45.1213C28.5334 46.0469 28.9776 46.9189 29.7333 47.4534L30.3999 47.9247C32.3029 49.2705 31.8365 52.2142 29.6108 52.9062L28.8313 53.1485C27.9474 53.4232 27.2556 54.1153 26.9809 54.9992L26.7385 55.7787C26.0467 58.0044 23.1028 58.4706 21.757 56.5676L21.2855 55.9012C20.751 55.1455 19.8789 54.7011 18.9536 54.7131L18.1372 54.7233C15.8067 54.7531 14.4536 52.0976 15.8476 50.2294L16.336 49.5752C16.8896 48.8335 17.0426 47.8669 16.7453 46.9902L16.4831 46.2173C15.7347 44.0098 17.8421 41.9024 20.0496 42.6509Z" fill="#4683F5"/>
</g>
<g opacity="0.821265">
<path d="M15.5478 83.7645L16.4157 87.6365C16.5729 88.3374 16.1321 89.0332 15.431 89.1902L3.32138 91.9048C2.6205 92.0618 1.92491 91.621 1.76756 90.9201L0.899647 87.0479C0.742672 86.347 1.18345 85.6514 1.88434 85.4944L13.9942 82.7798C14.6951 82.6228 15.3906 83.0636 15.5478 83.7645Z" fill="#50D05C"/>
</g>
<g opacity="0.821265">
<path d="M27.6653 132.203C27.6653 135.398 25.0747 137.989 21.879 137.989C18.6832 137.989 16.0928 135.398 16.0928 132.203C16.0928 129.007 18.6832 126.417 21.879 126.417C25.0747 126.417 27.6653 129.007 27.6653 132.203Z" fill="#F82681"/>
</g>
<g opacity="0.821265">
<path d="M20.0498 161.66L20.8227 161.923C21.6992 162.22 22.6659 162.067 23.4077 161.513L24.062 161.025C25.9299 159.631 28.5858 160.984 28.556 163.315L28.5456 164.131C28.5337 165.056 28.9779 165.929 29.7335 166.463L30.4001 166.934C32.3032 168.28 31.8368 171.224 29.6111 171.916L28.8315 172.158C27.9477 172.433 27.2559 173.125 26.9812 174.009L26.7387 174.788C26.0469 177.014 23.1031 177.48 21.7572 175.577L21.2857 174.911C20.7513 174.155 19.8792 173.711 18.9538 173.722L18.1375 173.733C15.8069 173.763 14.4539 171.107 15.8479 169.239L16.3363 168.585C16.8898 167.843 17.0428 166.876 16.7456 166L16.4834 165.227C15.7349 163.019 17.8423 160.912 20.0498 161.66Z" fill="#FFBC32"/>
</g>
<g opacity="0.821265">
<path d="M168.992 37.1364C167.238 34.851 167.781 31.4466 170.195 29.5948C172.608 27.7429 176.037 28.0995 177.791 30.385C177.794 30.3893 177.797 30.3937 177.8 30.3979" stroke="#F82681" stroke-width="3.79167" stroke-linecap="round" stroke-linejoin="round"/>
</g>
<g opacity="0.821265">
<path d="M184.026 68.9492L184.799 69.2114C185.676 69.5087 186.643 69.3555 187.384 68.8019L188.039 68.3137C189.907 66.9197 192.562 68.2728 192.532 70.6035L192.522 71.4197C192.51 72.3452 192.955 73.2173 193.71 73.7517L194.377 74.223C196.28 75.5689 195.814 78.5125 193.588 79.2045L192.808 79.4468C191.924 79.7215 191.232 80.4137 190.958 81.2975L190.715 82.0771C190.023 84.3028 187.08 84.769 185.734 82.8659L185.263 82.1996C184.728 81.4439 183.856 80.9995 182.93 81.0114L182.114 81.0219C179.784 81.0514 178.43 78.3959 179.825 76.528L180.313 75.8737C180.866 75.1319 181.019 74.1652 180.722 73.2886L180.46 72.5156C179.711 70.3081 181.819 68.2007 184.026 68.9492Z" fill="#FFBB31"/>
</g>
<g opacity="0.821265">
<path d="M190.001 137.237C193.936 137.755 196.723 141.601 196.176 145.756C195.629 149.911 191.941 152.904 188.007 152.386C187.999 152.385 187.992 152.384 187.984 152.383" stroke="#F82681" stroke-width="2.84375" stroke-linecap="round" stroke-linejoin="round"/>
</g>
<g opacity="0.821265">
<path d="M177.605 186.053L174.168 188.037C173.546 188.396 172.751 188.183 172.392 187.561L166.187 176.813C165.828 176.191 166.041 175.396 166.663 175.037L170.099 173.052C170.721 172.693 171.517 172.906 171.876 173.529L178.081 184.276C178.44 184.898 178.227 185.694 177.605 186.053Z" fill="#4683F5"/>
</g>
<g opacity="0.821265">
<path d="M64.9803 192.323C62.5645 189.175 63.3124 184.484 66.6375 181.933C69.9626 179.382 74.6866 179.873 77.1025 183.022L77.1163 183.04" stroke="#41AE80" stroke-width="3.79167" stroke-linecap="round" stroke-linejoin="round"/>
</g>
<path d="M174.997 91.9994C174.997 130.658 143.658 161.997 105 161.997C66.3414 161.997 35.0024 130.658 35.0024 91.9994C35.0024 53.341 66.3414 22.0024 105 22.0024C143.658 22.0024 174.997 53.341 174.997 91.9994Z" fill="#50D05C"/>
<path d="M74.0999 92.1182L94.6202 112.639L135.899 71.3601" stroke="white" stroke-width="11.1053" stroke-linecap="round" stroke-linejoin="round"/>
</svg>
